<svg id="Layer_1" data-name="Layer 1" xmlns="http://www.w3.org/2000/svg" viewBox="0 0 895.595 616.419">
  <path d="M895.6,616.29H0c9.813-25.026,27.936-46.256,53.483-52.554,37.372-9.2,76.921,16.1,114.209,6.586,21.185-5.4,37.863-21.132,55.388-34.2C289.2,486.831,379.8,472.261,458.038,498.353c40.894,13.631,78.158,37.47,120.05,47.6,54.172,13.11,110.822,2.238,166.53.446C798.873,544.661,876.61,566.768,895.6,616.29Z" fill="#f3f5fd"></path>
  <g>
    <path d="M749.93,429.6c-6.4,19.39-28.49,36.62-21.89,50.88,2.51,5.42,5.03,11.09,6.19,16.88a29.464,29.464,0,0,1,.37,10.51c-2.38,15.1-16.51,25.13-29.65,32.94-.81.48-1.63.97-2.45,1.46-12.45,7.46-25.49,16.05-29.49,29.82-2.22,7.65-1.24,15.83-2.16,23.74a49.641,49.641,0,0,1-7.23,20.46H579.71c-7.45-8.21-6.83-22.01-1.16-31.69,6.07-10.36,16.32-17.4,25.57-25.06,7.99-6.62,15.78-14.59,18.83-24.31a29.535,29.535,0,0,0,1.07-4.71c.74-5.26.34-32.13,9.46-48.67,14.1-25.54,36.97-19.25,43.96-33.66,2.68-5.52,4.99-73.35,49.54-60.82A33.129,33.129,0,0,1,749.93,429.6Z" fill="#c1d8ed"></path>
    <path d="M831.42,535.659a20.383,20.383,0,0,1-4.1,2.18c-12.02,4.51-45.45,4.01-50.34,15.88-2.3,5.58-2.85,11.74-4.82,17.45-4.47,12.95-16.27,22.66-29.47,26.31-4.75,1.31-9.67,1.92-14.37,3.38-9.08,2.83-16.6,8.52-23.21,15.43H596.74a42.679,42.679,0,0,1,19.56-36.16c12.05-7.6,27.27-9.02,39.1-16.96,7.8-5.24,13.41-12.81,17.86-21.18a154.711,154.711,0,0,0,7.49-16.89c3.31-8.59,6.77-17.81,14.29-23.13a36.693,36.693,0,0,1,12.07-5.06c10.86-2.84,19.21-1.17,27.12.45,9.6,1.96,18.56,3.83,30.59-2.56,21.34-11.34,52.54-67.89,83.72-14.16C861.04,502.189,843.79,527.379,831.42,535.659Z" fill="#8ddbe0"></path>
  </g>
  <g>
    <path d="M151.794,429.6c6.4,19.39,28.49,36.62,21.89,50.88-2.51,5.42-5.03,11.09-6.19,16.88a29.464,29.464,0,0,0-.37,10.51c2.38,15.1,16.51,25.13,29.65,32.94.81.48,1.63.97,2.45,1.46,12.45,7.46,25.49,16.05,29.49,29.82,2.22,7.65,1.24,15.83,2.16,23.74a49.641,49.641,0,0,0,7.23,20.46h83.91c7.45-8.21,6.83-22.01,1.16-31.69-6.07-10.36-16.32-17.4-25.57-25.06-7.99-6.62-15.78-14.59-18.83-24.31a29.535,29.535,0,0,1-1.07-4.71c-.74-5.26-.34-32.13-9.46-48.67-14.1-25.54-36.97-19.25-43.96-33.66-2.68-5.52-4.99-73.35-49.54-60.82A33.129,33.129,0,0,0,151.794,429.6Z" fill="#c1d8ed"></path>
    <path d="M70.3,535.659a20.383,20.383,0,0,0,4.1,2.18c12.02,4.51,45.45,4.01,50.34,15.88,2.3,5.58,2.85,11.74,4.82,17.45,4.47,12.95,16.27,22.66,29.47,26.31,4.75,1.31,9.67,1.92,14.37,3.38,9.08,2.83,16.6,8.52,23.21,15.43h108.37a42.679,42.679,0,0,0-19.56-36.16c-12.05-7.6-27.27-9.02-39.1-16.96-7.8-5.24-13.41-12.81-17.86-21.18a154.711,154.711,0,0,1-7.49-16.89c-3.31-8.59-6.77-17.81-14.29-23.13a36.693,36.693,0,0,0-12.07-5.06c-10.86-2.84-19.21-1.17-27.12.45-9.6,1.96-18.56,3.83-30.59-2.56-21.34-11.34-52.54-67.89-83.72-14.16C40.684,502.189,57.934,527.379,70.3,535.659Z" fill="#8ddbe0"></path>
  </g>
  <g>
    <g>
      <rect x="297.179" y="8.823" width="313.451" height="598.772" rx="34.026" fill="#fff"></rect>
      <path d="M576.605,616.419h-245.4a42.9,42.9,0,0,1-42.848-42.85V42.85A42.9,42.9,0,0,1,331.205,0h245.4a42.9,42.9,0,0,1,42.848,42.85V573.569A42.9,42.9,0,0,1,576.605,616.419ZM331.205,17.647A25.231,25.231,0,0,0,306,42.85V573.569a25.231,25.231,0,0,0,25.2,25.2h245.4a25.231,25.231,0,0,0,25.2-25.2V42.85a25.231,25.231,0,0,0-25.2-25.2Z" fill="#dee8f5"></path>
    </g>
    <path d="M400.173,8.823H507.636V29.674A15.606,15.606,0,0,1,492.029,45.28h-76.25a15.607,15.607,0,0,1-15.607-15.607V8.823Z" fill="#dee8f5"></path>
  </g>
  <g>
    <path d="M505.37,137.719a51.465,51.465,0,1,1-51.46-51.47A51.266,51.266,0,0,1,505.37,137.719Z" fill="#c1d8ed"></path>
    <circle cx="453.905" cy="122.645" r="20.377" fill="#fff"></circle>
    <path d="M490.99,173.4a51.456,51.456,0,0,1-74.17.01c6.94-15.51,20.95-26.11,37.09-26.11S484.05,157.889,490.99,173.4Z" fill="#fff"></path>
  </g>
  <rect x="345.476" y="226.29" width="216.857" height="47.308" fill="#367CFF"></rect>
  <rect x="345.476" y="308.054" width="216.857" height="47.308" fill="#c1d8ed"></rect>
  <g>
    <g>
      <g>
        <path d="M715.458,201.452s-8.041-3.454-8.041-24.581l-16.165-1.647s3.331,18.669-4.234,25.3Z" fill="#e69e87"></path>
        <path d="M715.786,167.992c-.58,6.458-3.561,12.772-9.008,15.289A40.492,40.492,0,0,1,687.7,187.47c-17.549,0-17.351-39.918-9.706-48.3s32.332-5.493,36.342,7.141C716.407,152.851,716.336,161.846,715.786,167.992Z" fill="#e69e87"></path>
        <g>
          <circle cx="690.328" cy="163.688" r="1.449" fill="#ffb92c"></circle>
          <path d="M693.176,160.818a.768.768,0,0,1-.106-.008l-3.846-.6a.681.681,0,1,1,.209-1.345l3.846.6a.681.681,0,0,1-.1,1.354Z" fill="#ffb92c"></path>
        </g>
        <path d="M678.966,169.838a6.143,6.143,0,1,0,12.286,0,6.041,6.041,0,0,0-5.937-6.143c-.069,0-.137,0-.206,0C680.734,163.91,678.966,166.445,678.966,169.838Z" fill="#e69e87"></path>
      </g>
      <path d="M678.915,155.389a66.975,66.975,0,0,1-10.167-.857s1.029-25.923,28.559-24.445a51.258,51.258,0,0,1,10.687.631c8.275,1.268,20.006,9.728,21.9,30.9.868,9.713,4.216,18.869,6.771,24.666a4.473,4.473,0,0,1-4.084,6.286L673.6,192.1a4.469,4.469,0,0,1-4.281-5.758C672.527,175.717,678.4,169.205,678.915,155.389Z" fill="#0f1011"></path>
    </g>
    <path d="M575.332,264.8s-14.2-3.937-16.24-6.651,2.919-11.849,2.919-11.849-14.2-5.813-12.835-8.108c1.615-2.709,19.346,6.987,19.346,6.987s-3.857-4.559-1.97-5.764c.776-.5,1.785.045,4.667,3.205,3.284,3.6,8.961,8.709,8.961,8.709Z" fill="#e69e87"></path>
    <path d="M645.983,605.474c-2.213-18.618-2.213-20.533-2.213-21.162h21c0-.064,0-.146,0-.246.074,1.555,1.134,11.036,2.072,18.929Z" fill="#e69e87"></path>
    <path d="M729.656,607.984s-.07-21.747-.07-23.672h21c0,1.919.07,23.6.07,23.6Z" fill="#e69e87"></path>
    <g>
      <path d="M760.073,342.894c0,2.98-1.573,12.942.958,13.654,1.517.427,3.309-7,3.309-7" fill="#e69e87"></path>
      <path d="M772.021,341.329s8.264,20.114-1.162,31.669a1.887,1.887,0,0,1-3.346-1.081c-.458-7.791-2.029-23.794-7.166-21.925V337.429" fill="#e69e87"></path>
    </g>
    <path d="M747.611,471.468c-2.028-31.38-5.532-84.019-7.252-114.905h.284l-2.96-49.7-76.077,4.695-.781,5.33-.267-.079c-8.917,47.263-12.72,99.531-19.948,147.134-.508,44.11-.648,90.27-2.374,134.272l37,.63c-.115-42.984.946-87.922,2.215-130.977,5.8-33.749,13.946-71.2,20.485-104.58,5.914,65.031,14.732,171.57,21.272,237.48l36.869-3.115Z" fill="#173161"></path>
    <path d="M704.131,616.105a4.107,4.107,0,0,1-4.088-4.127q0-.15.012-.3h0a4.108,4.108,0,0,1,2.658-3.529l24.443-8.187a3.467,3.467,0,0,1,2.872.319,19.1,19.1,0,0,0,11.468,3.4,17.022,17.022,0,0,0,8.82-3.222,1.547,1.547,0,0,1,2.528,1.2v11.952a2.678,2.678,0,0,1-2.678,2.678h-.011Z" fill="#c1d8ed"></path>
    <path d="M620.4,616.105a4.107,4.107,0,0,1-4.088-4.127q0-.15.012-.3h0a4.107,4.107,0,0,1,2.659-3.529l24.442-8.187a3.469,3.469,0,0,1,2.873.319,19.1,19.1,0,0,0,11.467,3.4,17.025,17.025,0,0,0,8.821-3.222,1.546,1.546,0,0,1,2.527,1.2v11.952a2.678,2.678,0,0,1-2.678,2.678h-.011Z" fill="#c1d8ed"></path>
    <path d="M767.421,279.454a10.977,10.977,0,0,0-.552-2.162l-22.953-62.414-.138.051a20.148,20.148,0,0,0-5.021-8.13c-4.569-4.568-12.48-7.525-22.116-7.525-14.344,0-33.935.031-37.95.2-12.266.526-18,6.024-20.344,14.144l-28.683,51.493-49.743-18.506L572.6,266.287l58.187,21.652a10.492,10.492,0,0,0,12.834-4.731l16.007-28.737c.424,4.085.741,8.1.785,11.927.384,32.467-8.382,38.583-4.062,48.509,4.194,9.625,86.522,13.629,87.623-3.316.7-10.778-8.8-20.191-8.8-41.2a53.3,53.3,0,0,1,1.573-11.838l9.27,25.207,9.1,61.306,21.569-3.2Z" fill="#ffb92c"></path>
  </g>
  <g>
    <circle cx="453.905" cy="481.082" r="68.848" fill="#c1d8ed"></circle>
    <g>
      <path d="M411.088,450.413C403.192,512.848,455,529.866,455,529.866s47.567-18.1,42.1-79.3c0,0-27.759,5.846-42.1-15.082C455,435.485,444.457,455.771,411.088,450.413Z" fill="#fff"></path>
      <path d="M468.512,474.974h-2.08v-4.648a12.527,12.527,0,0,0-25.053,0v4.648H439.3a3.585,3.585,0,0,0-3.585,3.585V501.93a3.585,3.585,0,0,0,3.585,3.585h29.214a3.585,3.585,0,0,0,3.585-3.585V478.559A3.585,3.585,0,0,0,468.512,474.974Zm-23.061-4.648a8.455,8.455,0,0,1,16.909,0v4.648H445.451Z" fill="#367CFF"></path>
    </g>
  </g>
  <g>
    <circle cx="366.925" cy="249.944" r="7.63" fill="#fff"></circle>
    <circle cx="389.833" cy="249.944" r="7.63" fill="#fff"></circle>
    <circle cx="412.742" cy="249.944" r="7.63" fill="#fff"></circle>
    <circle cx="435.651" cy="249.944" r="7.63" fill="#fff"></circle>
    <circle cx="458.559" cy="249.944" r="7.63" fill="#fff"></circle>
    <circle cx="481.468" cy="249.944" r="7.63" fill="#fff"></circle>
    <circle cx="503.559" cy="249.944" r="7.63" fill="#fff"></circle>
  </g>
  <g>
    <circle cx="366.925" cy="331.708" r="7.63" fill="#fff"></circle>
    <circle cx="389.833" cy="331.708" r="7.63" fill="#fff"></circle>
    <circle cx="412.742" cy="331.708" r="7.63" fill="#fff"></circle>
    <circle cx="435.651" cy="331.708" r="7.63" fill="#fff"></circle>
    <circle cx="458.559" cy="331.708" r="7.63" fill="#fff"></circle>
    <circle cx="481.468" cy="331.708" r="7.63" fill="#fff"></circle>
  </g>
</svg>